<svg id="レイヤー_1" data-name="レイヤー 1" xmlns="http://www.w3.org/2000/svg" width="300" height="300" viewBox="0 0 300 300"><defs><style>.cls-1{fill:#999;}</style></defs><title>icon-footer-youtube</title><path class="cls-1" d="M150,5A145,145,0,0,1,252.53,252.53,145,145,0,0,1,47.47,47.47,144.05,144.05,0,0,1,150,5m0-5A150,150,0,1,0,300,150,150,150,0,0,0,150,0Z"/><path class="cls-1" d="M224.25,187.3a19.51,19.51,0,0,1-16.59,15.55C188.59,205,169.25,205,150,205s-38.59,0-57.66-2.15A19.7,19.7,0,0,1,75.66,187.3C73,175.35,73,162.29,73,150s0-25.35,2.75-37.3c1.89-8.42,8.51-14.61,16.59-15.55C111.41,95,130.75,95,150,95s38.59,0,57.66,2.15a19.7,19.7,0,0,1,16.67,15.55c2.66,11.95,2.66,25,2.66,37.3S227,175.35,224.25,187.3Zm-43.83-41.94-44-27.5a5.44,5.44,0,0,0-5.59-.17A5.57,5.57,0,0,0,128,122.5v55a5.57,5.57,0,0,0,2.84,4.81,5.85,5.85,0,0,0,2.66.69,5.06,5.06,0,0,0,2.92-.86l44-27.5a5.47,5.47,0,0,0,0-9.28Z"/></svg>