<svg id="レイヤー_1" data-name="レイヤー 1" xmlns="http://www.w3.org/2000/svg" width="300" height="300" viewBox="0 0 300 300"><defs><style>.cls-1{fill:#999;}</style></defs><title>icon-footer-instagram</title><path class="cls-1" d="M150,5A145,145,0,0,1,252.53,252.53,145,145,0,0,1,47.47,47.47,144.05,144.05,0,0,1,150,5m0-5A150,150,0,1,0,300,150,150,150,0,0,0,150,0Z"/><path class="cls-1" d="M221.47,179.28c-.55,11.36-3.14,21.43-11.45,29.74s-18.38,10.9-29.74,11.45c-9.79.55-19.49.46-29.28.46s-19.49.09-29.28-.46c-11.36-.55-21.43-3.14-29.74-11.45s-10.9-18.38-11.45-29.74c-.55-9.79-.46-19.49-.46-29.28s-.09-19.49.46-29.28C81.08,109.36,83.67,99.29,92,91s18.38-10.9,29.74-11.45c9.79-.55,19.49-.46,29.28-.46s19.49-.09,29.28.46c11.36.55,21.43,3.14,29.74,11.45s10.9,18.38,11.45,29.74c.55,9.79.46,19.49.46,29.28S222,169.49,221.47,179.28ZM109.16,94.68a24.18,24.18,0,0,0-13.48,13.48c-3.69,9.33-2.86,31.5-2.86,41.84s-.83,32.51,2.86,41.84a24.18,24.18,0,0,0,13.48,13.48c9.33,3.69,31.5,2.86,41.84,2.86s32.51.83,41.84-2.86a24.18,24.18,0,0,0,13.48-13.48c3.69-9.33,2.86-31.5,2.86-41.84s.83-32.51-2.86-41.84a24.18,24.18,0,0,0-13.48-13.48c-9.33-3.69-31.5-2.86-41.84-2.86S118.49,91,109.16,94.68ZM151,186.39A36.39,36.39,0,1,1,187.39,150,36.34,36.34,0,0,1,151,186.39Zm0-60A23.64,23.64,0,1,0,174.64,150,23.69,23.69,0,0,0,151,126.36Zm37.87-5.73a8.5,8.5,0,1,1,8.5-8.5A8.48,8.48,0,0,1,188.87,120.63Z"/></svg>