<svg id="レイヤー_1" data-name="レイヤー 1" xmlns="http://www.w3.org/2000/svg" width="300" height="300" viewBox="0 0 300 300"><defs><style>.cls-1{fill:#999;}</style></defs><title>icon-footer-fb</title><path class="cls-1" d="M150,5A145,145,0,0,1,252.53,252.53,145,145,0,0,1,47.47,47.47,144.05,144.05,0,0,1,150,5m0-5A150,150,0,1,0,300,150,150,150,0,0,0,150,0Z"/><path class="cls-1" d="M189.9,98.65H175.4c-11.36,0-13.49,5.45-13.49,13.3V129.4H189l-3.6,27.34H161.91v70.1H133.65v-70.1H110.1V129.4h23.55V109.27c0-23.37,14.32-36.11,35.19-36.11a181.16,181.16,0,0,1,21.06,1.11Z"/></svg>