<svg xmlns="http://www.w3.org/2000/svg" id="レイヤー_1" width="284.83" height="239.45" data-name="レイヤー 1">
  <defs>
    <style>
      .cls-1{fill:#fff;}.cls-2{fill:#e13615;}.cls-3{fill:#dc9fad;}.cls-3,.cls-4,.cls-5{fill-rule:evenodd;}.cls-4{fill:#c48591;}.cls-5{fill:#f6c7ce;}
    </style>
  </defs>
  <circle cx="112.14" cy="127.31" r="112.14" class="cls-1"/>
  <path d="M112.14 15.19A112.11 112.11 0 0 0 9.93 173.43c25.12-5 48.92-18 69.15-28.94 7.22-3.87 16.56-8 20-12.88a90.92 90.92 0 0 0 4.68-8.68 100 100 0 0 0 10.3-28.09c1.19-6.2 2.27-14.32 4.84-20.3a79.67 79.67 0 0 1 4.38-8.62c1.28-2.26 4.73-6.1 4.38-8.63-.43-2.91-8-9.85-11.91-10.09-3.23-.2-6.35 1.27-9.55 1.22 2.11-2.55 7.89-2.29 10-4.83-3.22-.61-7.63.34-10.43 1.66-.18-2.82 4.18-2.11 4.95-4.18-.13-1.54-1.78-1.16-1.67-3 2.49-.67 3.85 4.64 7.72 2.25-.79-4.92-3.61-7.2-6.1-9.86.92-.18 2.35.64 2.5-.66-.12-2.47-1.27-5.75-.32-7.37l.33-.05c4.3 11.71 9.92 21.7 18.72 27.62 1.83-1.69 2.66-4.49 3.58-7.23.87-2.51 1.23-6.15 3.67-6.61.69 2.73-.77 5.67-1.46 8.58-1 4.33-1.12 8.7-2.64 12.27.54 15 9.85 20.48 17.7 27.43 4.27 3.77 9.45 8.81 13.89 10.16 2.17.67 4.06 0 4.74 2 .84 2.48-.82 2.8-2.6 4.85-1.26 1.48-1.71 3.42-3 4.26-6 3.9-16.09.41-23.12 3.27-2.85 9.22-6.67 21.55-6.11 33 .19 3.64 2.06 6.28 2.48 9.38.58 4.29-1.46 8.41-2.65 12 8 2.11 22.45-1.92 21 10.55-.29 2.48-1.85 5.19-2.83 8.1a131.17 131.17 0 0 0-4.24 17.32c-.76 4.26-.75 9.44-3.3 12-4.41 4.47-14.76 4.08-18.23 8.81a10.72 10.72 0 0 1-.16-3.87c-3 2.35-4.88 6.47-9.64 8-5.82 1.9-14.08.88-20.54 1 1.92-2.87 5.38-6.27 9.1-7 1.24-.21 2.72.31 3.91.14 5.67-.74 12.05-5.49 16-8.81 4.4-3.71 8.65-8 10.3-12.93-10.19 1.33-21.92.58-32.86 2.9-4 .83-7.59 3.08-11.63 5-13.06 6.28-29.19 9-46.85 12.1l-1.52.29a112.13 112.13 0 1 0 67.25-201.77z" class="cls-2"/>
  <path d="M143.94 202.36c-2.47.39-3.15 2.14-4.76 3.2 1.82.22 5.39-.62 4.76-3.2zm5.73-28.48c-8.37 1.54-16.42 3.32-20.93 7.84a19.36 19.36 0 0 0 .19 4.18c6.08.18 13.58.36 18.75 2.75.02-5.42 1.2-9.94 1.99-14.77z" class="cls-2"/>
  <path d="M251.13 2.4c1.12-.2 1.58-2.32 2.35-2.4 1.6-.16 4.29 4.43 4.91 6.7 2 7.4-2.78 13.18-5.82 15.91-2.88-1.67-6.88-5.15-7.78-9.46A13.61 13.61 0 0 1 248.53.29c.99.56 1.6 1.56 2.6 2.11z" class="cls-3"/>
  <path d="M275 13.6a12.28 12.28 0 0 1-1.38 3.24c.79.71 2.12.82 3.23 1.16-1 8.88-14.83 11.68-21.72 6.5.94-8.13 10.94-15.74 19.87-10.9zm-25.25 10.76c-5.05 7-20.26 5.52-22.29-2.95 1.07-.46 1.74-1.29 3.06-1.53-.4-1.31-1.53-1.8-1.77-3.28 8.53-5.82 18.62.52 21 7.76z" class="cls-3"/>
  <path d="M251.06 27.67c3.53 9.84-.45 19.33-10.06 20.23a23.85 23.85 0 0 1-.64-3.12c-1.2.15-2.17.51-3.36.65-2.72-10.09 4-16.97 14.06-17.76zm19.67 15.51a11.32 11.32 0 0 1-3.38 0c-.66.69-.15 2.42-.47 3.41-9.28-.06-15-8.6-12.43-18.88 10.18-.35 16.78 4.55 16.28 15.47zM188 88.24c.57-.1.81-1.2 1.21-1.23.82-.08 2.2 2.28 2.52 3.44 1 3.8-1.44 6.78-3 8.19-1.49-.86-3.53-2.65-4-4.87a7 7 0 0 1 1.92-6.61c.54.29.86.84 1.35 1.08zM200.33 94a6.49 6.49 0 0 1-.72 1.68 4.66 4.66 0 0 0 1.66.59c-.52 4.57-7.62 6-11.17 3.34.46-4.17 5.61-8.1 10.23-5.61zm-13.03 5.54c-2.6 3.62-10.42 2.84-11.47-1.51.55-.24.9-.66 1.58-.78-.21-.68-.78-.93-.92-1.69 4.42-3 9.6.26 10.81 3.98z" class="cls-3"/>
  <path d="M188 101.25c1.81 5-.23 9.92-5.18 10.4a14.49 14.49 0 0 1-.33-1.6c-.61.09-1.1.26-1.72.34-1.42-5.2 2.02-8.73 7.23-9.14zm10.11 7.97a6.24 6.24 0 0 1-1.74 0c-.34.34-.08 1.24-.24 1.75-4.77 0-7.71-4.43-6.39-9.71 5.26-.18 8.62 2.36 8.37 7.96z" class="cls-3"/>
  <path d="M173.6 61.31c.58-.09.81-1.19 1.21-1.24.82-.08 2.21 2.29 2.52 3.46 1 3.81-1.43 6.78-3 8.18-1.47-.86-3.53-2.66-4-4.86a7 7 0 0 1 1.92-6.63c.52.3.84.78 1.35 1.09zm12.3 5.77a6.28 6.28 0 0 1-.71 1.66 4.45 4.45 0 0 0 1.66.61c-.53 4.56-7.62 6-11.18 3.33.47-4.18 5.61-8.09 10.23-5.6zm-13.02 5.54c-2.6 3.62-10.42 2.83-11.46-1.52.55-.24.89-.67 1.57-.79-.2-.68-.78-.92-.92-1.68 4.41-3 9.6.26 10.81 3.99z" class="cls-4"/>
  <path d="M173.56 74.32c1.83 5.06-.22 9.94-5.18 10.41-.08-.56-.28-1-.31-1.61-.62.08-1.11.26-1.73.33-1.42-5.18 2.02-8.73 7.22-9.13zm10.12 7.98a6.05 6.05 0 0 1-1.74 0c-.35.35-.08 1.24-.24 1.75-4.77 0-7.71-4.43-6.39-9.71 5.23-.19 8.63 2.34 8.37 7.96zm50.14-16.42c.57-.11.81-1.2 1.2-1.24.83-.08 2.22 2.27 2.53 3.44 1 3.82-1.42 6.78-3 8.19-1.48-.86-3.53-2.66-4-4.87a7 7 0 0 1 1.93-6.61c.52.29.83.8 1.34 1.09zm12.3 5.76a6.3 6.3 0 0 1-.71 1.67 4.44 4.44 0 0 0 1.66.59c-.52 4.57-7.63 6-11.16 3.34.46-4.17 5.61-8.1 10.21-5.6zm-13.01 5.53c-2.59 3.62-10.42 2.83-11.47-1.51.56-.25.9-.67 1.58-.79-.2-.67-.78-.93-.91-1.69 4.39-2.98 9.59.27 10.8 3.99z" class="cls-4"/>
  <path d="M233.79 78.88c1.81 5.05-.23 9.93-5.18 10.4a14.42 14.42 0 0 1-.33-1.61c-.6.09-1.1.27-1.72.34-1.41-5.19 2.03-8.72 7.23-9.13zm10.11 7.97a5.51 5.51 0 0 1-1.75 0c-.33.35-.07 1.24-.24 1.77-4.77 0-7.71-4.43-6.39-9.71 5.23-.19 8.64 2.32 8.38 7.94z" class="cls-4"/>
  <path d="M187.35 26.32c.71-.12 1-1.47 1.48-1.51 1-.1 2.71 2.78 3.09 4.22 1.26 4.65-1.74 8.29-3.65 10-1.82-1.06-4.33-3.24-4.91-6a8.57 8.57 0 0 1 2.35-8.1c.64.41 1.02 1.07 1.64 1.39z" class="cls-5"/>
  <path d="M202.4 33.37a7.27 7.27 0 0 1-.87 2 5.74 5.74 0 0 0 2 .74c-.65 5.58-9.34 7.34-13.67 4.09.61-5.09 6.9-9.89 12.54-6.83zm-15.92 6.76c-3.19 4.43-12.75 3.48-14-1.85.68-.29 1.1-.82 1.93-1-.25-.83-1-1.14-1.12-2.06 5.35-3.62 11.71.36 13.19 4.91z" class="cls-5"/>
  <path d="M187.32 42.23C189.53 48.42 187 54.38 181 55a14.54 14.54 0 0 1-.42-2c-.74.11-1.34.32-2.09.42-1.75-6.37 2.51-10.7 8.83-11.19zM199.69 52a7.54 7.54 0 0 1-2.13 0c-.42.43-.11 1.52-.31 2.15-5.84 0-9.43-5.41-7.8-11.89 6.4-.26 10.55 2.85 10.24 9.74z" class="cls-5"/>
  <path d="M176.7 126.28c.25 0 .37-.51.53-.53.35 0 1 1 1.08 1.49a3.6 3.6 0 0 1-1.29 3.53 3.59 3.59 0 0 1-1.72-2.1 3 3 0 0 1 .82-2.84c.23.11.36.33.58.45zm5.3 2.48a2.38 2.38 0 0 1-.3.71 1.73 1.73 0 0 0 .71.26c-.22 2-3.28 2.59-4.81 1.44a3.12 3.12 0 0 1 4.4-2.41zm-5.61 2.38c-1.11 1.55-4.48 1.22-4.93-.65.23-.11.38-.3.69-.34-.09-.3-.35-.41-.4-.73a3.16 3.16 0 0 1 4.64 1.72z" class="cls-3"/>
  <path d="M176.69 131.87c.78 2.18-.1 4.28-2.23 4.49a6.81 6.81 0 0 1-.15-.7c-.26 0-.48.11-.74.14-.57-2.23.89-3.75 3.12-3.93zm4.31 3.43a2.66 2.66 0 0 1-.73 0c-.15.16 0 .54-.11.75-2 0-3.31-1.9-2.74-4.18 2.26-.06 3.73 1.02 3.58 3.43z" class="cls-3"/>
  <path d="M221.3 96c.25 0 .35-.52.52-.53.36 0 1 1 1.09 1.49a3.61 3.61 0 0 1-1.29 3.53 3.59 3.59 0 0 1-1.73-2.11 3 3 0 0 1 .83-2.84c.22.1.36.32.58.46zm5.3 2.46a3.12 3.12 0 0 1-.31.72 2 2 0 0 0 .72.25c-.23 2-3.29 2.58-4.81 1.44a3.12 3.12 0 0 1 4.4-2.41zm-5.6 2.39c-1.13 1.55-4.49 1.22-4.94-.65.25-.1.39-.3.68-.34-.08-.3-.33-.41-.39-.73a3.17 3.17 0 0 1 4.65 1.72z" class="cls-5"/>
  <path d="M221.28 101.57c.78 2.19-.09 4.29-2.22 4.49a5.94 5.94 0 0 1-.14-.7c-.26 0-.48.12-.74.15-.61-2.24.82-3.76 3.1-3.94zm4.36 3.43a2.3 2.3 0 0 1-.75 0c-.14.15 0 .54-.11.75-2 0-3.32-1.91-2.74-4.18 2.24-.06 3.71 1.02 3.6 3.43zm53.49-66.35c.26 0 .34-.51.52-.52.36 0 1 1 1.09 1.48a3.59 3.59 0 0 1-1.28 3.53 3.66 3.66 0 0 1-1.73-2.1 3 3 0 0 1 .84-2.84c.21.12.34.33.56.45zm5.29 2.49a2.54 2.54 0 0 1-.3.71 1.88 1.88 0 0 0 .71.26c-.22 2-3.28 2.58-4.81 1.44a3.11 3.11 0 0 1 4.4-2.41zm-5.61 2.37c-1.11 1.56-4.48 1.22-4.93-.65.24-.1.38-.29.68-.34-.08-.29-.33-.4-.39-.73a3.16 3.16 0 0 1 4.64 1.72z" class="cls-5"/>
  <path d="M279.12 44.24c.77 2.18-.1 4.28-2.23 4.49a5.73 5.73 0 0 1-.14-.7c-.27 0-.48.11-.75.15-.6-2.24.88-3.76 3.12-3.94zm4.35 3.44a2.66 2.66 0 0 1-.75 0c-.13.15 0 .54-.09.75-2.06 0-3.32-1.89-2.75-4.17 2.23-.09 3.7 1 3.59 3.42z" class="cls-5"/>
  <path d="M168.05 16.37c.24 0 .35-.52.52-.52.35 0 1 1 1.08 1.48a3.57 3.57 0 0 1-1.29 3.53 3.59 3.59 0 0 1-1.72-2.1 3 3 0 0 1 .82-2.85c.24.09.37.33.59.46zm5.29 2.48a2.53 2.53 0 0 1-.3.73 2 2 0 0 0 .72.25c-.23 2-3.28 2.58-4.82 1.44a3.14 3.14 0 0 1 4.4-2.42zm-5.6 2.38c-1.13 1.56-4.49 1.21-4.94-.66.24-.1.38-.28.68-.33-.09-.29-.33-.4-.39-.72 1.91-1.31 4.12.11 4.65 1.71z" class="cls-3"/>
  <path d="M168 22c.78 2.18-.11 4.28-2.23 4.48 0-.24-.12-.42-.14-.69-.26 0-.48.11-.74.14-.57-2.27.91-3.79 3.11-3.93zm4.39 3.39a2.61 2.61 0 0 1-.75 0c-.15.15 0 .54-.1.75-2.06 0-3.32-1.9-2.75-4.18 2.21-.06 3.71 1.04 3.6 3.43zm30.01 36.04c.25 0 .35-.52.52-.54.36 0 1 1 1.09 1.5a3.62 3.62 0 0 1-1.28 3.53 3.55 3.55 0 0 1-1.72-2.1 3 3 0 0 1 .82-2.85c.17.12.35.33.57.46zm5.29 2.48a2.4 2.4 0 0 1-.32.72c.17.17.48.19.72.27-.22 2-3.29 2.58-4.81 1.42a3.12 3.12 0 0 1 4.41-2.41zm-5.6 2.38c-1.12 1.55-4.48 1.22-4.93-.65.24-.11.38-.28.69-.33-.09-.3-.33-.41-.4-.73a3.16 3.16 0 0 1 4.64 1.71z" class="cls-3"/>
  <path d="M202.39 67c.78 2.18-.1 4.28-2.23 4.48a5.6 5.6 0 0 1-.14-.69c-.26 0-.47.11-.74.14-.62-2.2.87-3.73 3.11-3.93zm4.34 3.46a2.73 2.73 0 0 1-.74 0c-.14.15 0 .53-.1.75-2.05 0-3.31-1.9-2.75-4.18 2.25-.03 3.71.97 3.59 3.43zm59.77-6.09c.26 0 .38-.57.57-.59.39 0 1.06 1.09 1.21 1.65a4 4 0 0 1-1.43 3.91 4 4 0 0 1-1.92-2.34 3.34 3.34 0 0 1 .91-3.16c.25.16.42.39.66.53zm5.87 2.75a2.74 2.74 0 0 1-.34.8 2 2 0 0 0 .8.28c-.26 2.2-3.65 2.88-5.34 1.61.21-2.01 2.67-3.88 4.88-2.69zm-6.22 2.64c-1.25 1.74-5 1.37-5.48-.72.27-.12.42-.32.75-.38-.1-.32-.37-.44-.44-.8 2.1-1.43 4.59.14 5.17 1.9z" class="cls-3"/>
  <path d="M266.47 70.58c.87 2.42-.11 4.76-2.48 5a5.73 5.73 0 0 1-.15-.77c-.3 0-.54.13-.82.17-.68-2.51.98-4.21 3.45-4.4zm4.84 3.82a3.5 3.5 0 0 1-.84 0c-.15.16 0 .59-.11.85-2.29 0-3.68-2.13-3.06-4.65 2.5-.09 4.14 1.11 4.01 3.8z" class="cls-3"/>
  <path d="M112.14 15.19A112.11 112.11 0 0 0 9.93 173.43c25.12-5 48.92-18 69.15-28.94 7.22-3.87 16.56-8 20-12.88a90.92 90.92 0 0 0 4.68-8.68 100 100 0 0 0 10.3-28.09c1.19-6.2 2.27-14.32 4.84-20.3a79.67 79.67 0 0 1 4.38-8.62c1.28-2.26 4.73-6.1 4.38-8.63-.43-2.91-8-9.85-11.91-10.09-3.23-.2-6.35 1.27-9.55 1.22 2.11-2.55 7.89-2.29 10-4.83-3.22-.61-7.63.34-10.43 1.66-.18-2.82 4.18-2.11 4.95-4.18-.13-1.54-1.78-1.16-1.67-3 2.49-.67 3.85 4.64 7.72 2.25-.79-4.92-3.61-7.2-6.1-9.86.92-.18 2.35.64 2.5-.66-.12-2.47-1.27-5.75-.32-7.37l.33-.05c4.3 11.71 9.92 21.7 18.72 27.62 1.83-1.69 2.66-4.49 3.58-7.23.87-2.51 1.23-6.15 3.67-6.61.69 2.73-.77 5.67-1.46 8.58-1 4.33-1.12 8.7-2.64 12.27.54 15 9.85 20.48 17.7 27.43 4.27 3.77 9.45 8.81 13.89 10.16 2.17.67 4.06 0 4.74 2 .84 2.48-.82 2.8-2.6 4.85-1.26 1.48-1.71 3.42-3 4.26-6 3.9-16.09.41-23.12 3.27-2.85 9.22-6.67 21.55-6.11 33 .19 3.64 2.06 6.28 2.48 9.38.58 4.29-1.46 8.41-2.65 12 8 2.11 22.45-1.92 21 10.55-.29 2.48-1.85 5.19-2.83 8.1a131.17 131.17 0 0 0-4.24 17.32c-.76 4.26-.75 9.44-3.3 12-4.41 4.47-14.76 4.08-18.23 8.81a10.72 10.72 0 0 1-.16-3.87c-3 2.35-4.88 6.47-9.64 8-5.82 1.9-14.08.88-20.54 1 1.92-2.87 5.38-6.27 9.1-7 1.24-.21 2.72.31 3.91.14 5.67-.74 12.05-5.49 16-8.81 4.4-3.71 8.65-8 10.3-12.93-10.19 1.33-21.92.58-32.86 2.9-4 .83-7.59 3.08-11.63 5-13.06 6.28-29.19 9-46.85 12.1l-1.52.29a112.13 112.13 0 1 0 67.25-201.77z" class="cls-2"/>
  <path d="M143.94 202.36c-2.47.39-3.15 2.14-4.76 3.2 1.82.22 5.39-.62 4.76-3.2zm5.73-28.48c-8.37 1.54-16.42 3.32-20.93 7.84a19.36 19.36 0 0 0 .19 4.18c6.08.18 13.58.36 18.75 2.75.02-5.42 1.2-9.94 1.99-14.77z" class="cls-2"/>
  <path d="M251.13 2.4c1.12-.2 1.58-2.32 2.35-2.4 1.6-.16 4.29 4.43 4.91 6.7 2 7.4-2.78 13.18-5.82 15.91-2.88-1.67-6.88-5.15-7.78-9.46A13.61 13.61 0 0 1 248.53.29c.99.56 1.6 1.56 2.6 2.11z" class="cls-3"/>
  <path d="M275 13.6a12.28 12.28 0 0 1-1.38 3.24c.79.71 2.12.82 3.23 1.16-1 8.88-14.83 11.68-21.72 6.5.94-8.13 10.94-15.74 19.87-10.9zm-25.25 10.76c-5.05 7-20.26 5.52-22.29-2.95 1.07-.46 1.74-1.29 3.06-1.53-.4-1.31-1.53-1.8-1.77-3.28 8.53-5.82 18.62.52 21 7.76z" class="cls-3"/>
  <path d="M251.06 27.67c3.53 9.84-.45 19.33-10.06 20.23a23.85 23.85 0 0 1-.64-3.12c-1.2.15-2.17.51-3.36.65-2.72-10.09 4-16.97 14.06-17.76zm19.67 15.51a11.32 11.32 0 0 1-3.38 0c-.66.69-.15 2.42-.47 3.41-9.28-.06-15-8.6-12.43-18.88 10.18-.35 16.78 4.55 16.28 15.47zM188 88.24c.57-.1.81-1.2 1.21-1.23.82-.08 2.2 2.28 2.52 3.44 1 3.8-1.44 6.78-3 8.19-1.49-.86-3.53-2.65-4-4.87a7 7 0 0 1 1.92-6.61c.54.29.86.84 1.35 1.08zM200.33 94a6.49 6.49 0 0 1-.72 1.68 4.66 4.66 0 0 0 1.66.59c-.52 4.57-7.62 6-11.17 3.34.46-4.17 5.61-8.1 10.23-5.61zm-13.03 5.54c-2.6 3.62-10.42 2.84-11.47-1.51.55-.24.9-.66 1.58-.78-.21-.68-.78-.93-.92-1.69 4.42-3 9.6.26 10.81 3.98z" class="cls-3"/>
  <path d="M188 101.25c1.81 5-.23 9.92-5.18 10.4a14.49 14.49 0 0 1-.33-1.6c-.61.09-1.1.26-1.72.34-1.42-5.2 2.02-8.73 7.23-9.14zm10.11 7.97a6.24 6.24 0 0 1-1.74 0c-.34.34-.08 1.24-.24 1.75-4.77 0-7.71-4.43-6.39-9.71 5.26-.18 8.62 2.36 8.37 7.96z" class="cls-3"/>
  <path d="M173.6 61.31c.58-.09.81-1.19 1.21-1.24.82-.08 2.21 2.29 2.52 3.46 1 3.81-1.43 6.78-3 8.18-1.47-.86-3.53-2.66-4-4.86a7 7 0 0 1 1.92-6.63c.52.3.84.78 1.35 1.09zm12.3 5.77a6.28 6.28 0 0 1-.71 1.66 4.45 4.45 0 0 0 1.66.61c-.53 4.56-7.62 6-11.18 3.33.47-4.18 5.61-8.09 10.23-5.6zm-13.02 5.54c-2.6 3.62-10.42 2.83-11.46-1.52.55-.24.89-.67 1.57-.79-.2-.68-.78-.92-.92-1.68 4.41-3 9.6.26 10.81 3.99z" class="cls-4"/>
  <path d="M173.56 74.32c1.83 5.06-.22 9.94-5.18 10.41-.08-.56-.28-1-.31-1.61-.62.08-1.11.26-1.73.33-1.42-5.18 2.02-8.73 7.22-9.13zm10.12 7.98a6.05 6.05 0 0 1-1.74 0c-.35.35-.08 1.24-.24 1.75-4.77 0-7.71-4.43-6.39-9.71 5.23-.19 8.63 2.34 8.37 7.96zm50.14-16.42c.57-.11.81-1.2 1.2-1.24.83-.08 2.22 2.27 2.53 3.44 1 3.82-1.42 6.78-3 8.19-1.48-.86-3.53-2.66-4-4.87a7 7 0 0 1 1.93-6.61c.52.29.83.8 1.34 1.09zm12.3 5.76a6.3 6.3 0 0 1-.71 1.67 4.44 4.44 0 0 0 1.66.59c-.52 4.57-7.63 6-11.16 3.34.46-4.17 5.61-8.1 10.21-5.6zm-13.01 5.53c-2.59 3.62-10.42 2.83-11.47-1.51.56-.25.9-.67 1.58-.79-.2-.67-.78-.93-.91-1.69 4.39-2.98 9.59.27 10.8 3.99z" class="cls-4"/>
  <path d="M233.79 78.88c1.81 5.05-.23 9.93-5.18 10.4a14.42 14.42 0 0 1-.33-1.61c-.6.09-1.1.27-1.72.34-1.41-5.19 2.03-8.72 7.23-9.13zm10.11 7.97a5.51 5.51 0 0 1-1.75 0c-.33.35-.07 1.24-.24 1.77-4.77 0-7.71-4.43-6.39-9.71 5.23-.19 8.64 2.32 8.38 7.94z" class="cls-4"/>
  <path d="M187.35 26.32c.71-.12 1-1.47 1.48-1.51 1-.1 2.71 2.78 3.09 4.22 1.26 4.65-1.74 8.29-3.65 10-1.82-1.06-4.33-3.24-4.91-6a8.57 8.57 0 0 1 2.35-8.1c.64.41 1.02 1.07 1.64 1.39z" class="cls-5"/>
  <path d="M202.4 33.37a7.27 7.27 0 0 1-.87 2 5.74 5.74 0 0 0 2 .74c-.65 5.58-9.34 7.34-13.67 4.09.61-5.09 6.9-9.89 12.54-6.83zm-15.92 6.76c-3.19 4.43-12.75 3.48-14-1.85.68-.29 1.1-.82 1.93-1-.25-.83-1-1.14-1.12-2.06 5.35-3.62 11.71.36 13.19 4.91z" class="cls-5"/>
  <path d="M187.32 42.23C189.53 48.42 187 54.38 181 55a14.54 14.54 0 0 1-.42-2c-.74.11-1.34.32-2.09.42-1.75-6.37 2.51-10.7 8.83-11.19zM199.69 52a7.54 7.54 0 0 1-2.13 0c-.42.43-.11 1.52-.31 2.15-5.84 0-9.43-5.41-7.8-11.89 6.4-.26 10.55 2.85 10.24 9.74z" class="cls-5"/>
  <path d="M176.7 126.28c.25 0 .37-.51.53-.53.35 0 1 1 1.08 1.49a3.6 3.6 0 0 1-1.29 3.53 3.59 3.59 0 0 1-1.72-2.1 3 3 0 0 1 .82-2.84c.23.11.36.33.58.45zm5.3 2.48a2.38 2.38 0 0 1-.3.71 1.73 1.73 0 0 0 .71.26c-.22 2-3.28 2.59-4.81 1.44a3.12 3.12 0 0 1 4.4-2.41zm-5.61 2.38c-1.11 1.55-4.48 1.22-4.93-.65.23-.11.38-.3.69-.34-.09-.3-.35-.41-.4-.73a3.16 3.16 0 0 1 4.64 1.72z" class="cls-3"/>
  <path d="M176.69 131.87c.78 2.18-.1 4.28-2.23 4.49a6.81 6.81 0 0 1-.15-.7c-.26 0-.48.11-.74.14-.57-2.23.89-3.75 3.12-3.93zm4.31 3.43a2.66 2.66 0 0 1-.73 0c-.15.16 0 .54-.11.75-2 0-3.31-1.9-2.74-4.18 2.26-.06 3.73 1.02 3.58 3.43z" class="cls-3"/>
  <path d="M221.3 96c.25 0 .35-.52.52-.53.36 0 1 1 1.09 1.49a3.61 3.61 0 0 1-1.29 3.53 3.59 3.59 0 0 1-1.73-2.11 3 3 0 0 1 .83-2.84c.22.1.36.32.58.46zm5.3 2.46a3.12 3.12 0 0 1-.31.72 2 2 0 0 0 .72.25c-.23 2-3.29 2.58-4.81 1.44a3.12 3.12 0 0 1 4.4-2.41zm-5.6 2.39c-1.13 1.55-4.49 1.22-4.94-.65.25-.1.39-.3.68-.34-.08-.3-.33-.41-.39-.73a3.17 3.17 0 0 1 4.65 1.72z" class="cls-5"/>
  <path d="M221.28 101.57c.78 2.19-.09 4.29-2.22 4.49a5.94 5.94 0 0 1-.14-.7c-.26 0-.48.12-.74.15-.61-2.24.82-3.76 3.1-3.94zm4.36 3.43a2.3 2.3 0 0 1-.75 0c-.14.15 0 .54-.11.75-2 0-3.32-1.91-2.74-4.18 2.24-.06 3.71 1.02 3.6 3.43zm53.49-66.35c.26 0 .34-.51.52-.52.36 0 1 1 1.09 1.48a3.59 3.59 0 0 1-1.28 3.53 3.66 3.66 0 0 1-1.73-2.1 3 3 0 0 1 .84-2.84c.21.12.34.33.56.45zm5.29 2.49a2.54 2.54 0 0 1-.3.71 1.88 1.88 0 0 0 .71.26c-.22 2-3.28 2.58-4.81 1.44a3.11 3.11 0 0 1 4.4-2.41zm-5.61 2.37c-1.11 1.56-4.48 1.22-4.93-.65.24-.1.38-.29.68-.34-.08-.29-.33-.4-.39-.73a3.16 3.16 0 0 1 4.64 1.72z" class="cls-5"/>
  <path d="M279.12 44.24c.77 2.18-.1 4.28-2.23 4.49a5.73 5.73 0 0 1-.14-.7c-.27 0-.48.11-.75.15-.6-2.24.88-3.76 3.12-3.94zm4.35 3.44a2.66 2.66 0 0 1-.75 0c-.13.15 0 .54-.09.75-2.06 0-3.32-1.89-2.75-4.17 2.23-.09 3.7 1 3.59 3.42z" class="cls-5"/>
  <path d="M168.05 16.37c.24 0 .35-.52.52-.52.35 0 1 1 1.08 1.48a3.57 3.57 0 0 1-1.29 3.53 3.59 3.59 0 0 1-1.72-2.1 3 3 0 0 1 .82-2.85c.24.09.37.33.59.46zm5.29 2.48a2.53 2.53 0 0 1-.3.73 2 2 0 0 0 .72.25c-.23 2-3.28 2.58-4.82 1.44a3.14 3.14 0 0 1 4.4-2.42zm-5.6 2.38c-1.13 1.56-4.49 1.21-4.94-.66.24-.1.38-.28.68-.33-.09-.29-.33-.4-.39-.72 1.91-1.31 4.12.11 4.65 1.71z" class="cls-3"/>
  <path d="M168 22c.78 2.18-.11 4.28-2.23 4.48 0-.24-.12-.42-.14-.69-.26 0-.48.11-.74.14-.57-2.27.91-3.79 3.11-3.93zm4.39 3.39a2.61 2.61 0 0 1-.75 0c-.15.15 0 .54-.1.75-2.06 0-3.32-1.9-2.75-4.18 2.21-.06 3.71 1.04 3.6 3.43zm30.01 36.04c.25 0 .35-.52.52-.54.36 0 1 1 1.09 1.5a3.62 3.62 0 0 1-1.28 3.53 3.55 3.55 0 0 1-1.72-2.1 3 3 0 0 1 .82-2.85c.17.12.35.33.57.46zm5.29 2.48a2.4 2.4 0 0 1-.32.72c.17.17.48.19.72.27-.22 2-3.29 2.58-4.81 1.42a3.12 3.12 0 0 1 4.41-2.41zm-5.6 2.38c-1.12 1.55-4.48 1.22-4.93-.65.24-.11.38-.28.69-.33-.09-.3-.33-.41-.4-.73a3.16 3.16 0 0 1 4.64 1.71z" class="cls-3"/>
  <path d="M202.39 67c.78 2.18-.1 4.28-2.23 4.48a5.6 5.6 0 0 1-.14-.69c-.26 0-.47.11-.74.14-.62-2.2.87-3.73 3.11-3.93zm4.34 3.46a2.73 2.73 0 0 1-.74 0c-.14.15 0 .53-.1.75-2.05 0-3.31-1.9-2.75-4.18 2.25-.03 3.71.97 3.59 3.43zm59.77-6.09c.26 0 .38-.57.57-.59.39 0 1.06 1.09 1.21 1.65a4 4 0 0 1-1.43 3.91 4 4 0 0 1-1.92-2.34 3.34 3.34 0 0 1 .91-3.16c.25.16.42.39.66.53zm5.87 2.75a2.74 2.74 0 0 1-.34.8 2 2 0 0 0 .8.28c-.26 2.2-3.65 2.88-5.34 1.61.21-2.01 2.67-3.88 4.88-2.69zm-6.22 2.64c-1.25 1.74-5 1.37-5.48-.72.27-.12.42-.32.75-.38-.1-.32-.37-.44-.44-.8 2.1-1.43 4.59.14 5.17 1.9z" class="cls-3"/>
  <path d="M266.47 70.58c.87 2.42-.11 4.76-2.48 5a5.73 5.73 0 0 1-.15-.77c-.3 0-.54.13-.82.17-.68-2.51.98-4.21 3.45-4.4zm4.84 3.82a3.5 3.5 0 0 1-.84 0c-.15.16 0 .59-.11.85-2.29 0-3.68-2.13-3.06-4.65 2.5-.09 4.14 1.11 4.01 3.8z" class="cls-3"/>
</svg>